HIERARCHY
ROOT COM
{
  OFFSET -10.5682 89.9488 26.191
  CHANNELS 6 Xposition Yposition Zposition Zrotation Xrotation Yrotation
  JOINT Spine
  {
    OFFSET 0 10.0313 -3.64775
    CHANNELS 3 Zrotation Xrotation Yrotation
    JOINT Spine1
    {
      OFFSET 0 14.268 -0.0123585
      CHANNELS 3 Zrotation Xrotation Yrotation
      JOINT Spine2
      {
        OFFSET 0 15.5534 -0.0118018
        CHANNELS 3 Zrotation Xrotation Yrotation
        JOINT Neck
        {
          OFFSET 0 15.3437 -0.00507736
          CHANNELS 3 Zrotation Xrotation Yrotation
          JOINT Head
          {
            OFFSET 0 6.5943 0
            CHANNELS 3 Zrotation Xrotation Yrotation
            End Site
            {
              OFFSET 0 0 0
            }
          }
          JOINT Leftcollar
          {
            OFFSET 4.25429 -1.5481 1.99067
            CHANNELS 3 Zrotation Xrotation Yrotation
            JOINT LeftArm
            {
              OFFSET 16.8259 0 0
              CHANNELS 3 Zrotation Xrotation Yrotation
              JOINT LeftForeArm
              {
                OFFSET 0 -28.058 0
                CHANNELS 3 Zrotation Xrotation Yrotation
                JOINT LeftHand
                {
                  OFFSET 0 -24.7253 0
                  CHANNELS 3 Zrotation Xrotation Yrotation
                  End Site
                  {
                    OFFSET -2.98615 -9.94619 -0.575321
                  }
                }
              }
            }
          }
          JOINT RightCollar
          {
            OFFSET -4.25428 -1.54809 1.99069
            CHANNELS 3 Zrotation Xrotation Yrotation
            JOINT RightArm
            {
              OFFSET -16.8259 0 0
              CHANNELS 3 Zrotation Xrotation Yrotation
              JOINT RightForeArm
              {
                OFFSET 0 -28.058 0
                CHANNELS 3 Zrotation Xrotation Yrotation
                JOINT RightHand
                {
                  OFFSET 0 -24.7253 0
                  CHANNELS 3 Zrotation Xrotation Yrotation
                  End Site
                  {
                    OFFSET 2.98615 -9.94618 -0.575319
                  }
                }
              }
            }
          }
        }
      }
    }
  }
  JOINT LeftUpLeg
  {
    OFFSET 9.94275 0 0
    CHANNELS 3 Zrotation Xrotation Yrotation
    JOINT LeftLeg
    {
      OFFSET 0 -45.973 0
      CHANNELS 3 Zrotation Xrotation Yrotation
      JOINT LeftFoot
      {
        OFFSET 0 -43.1634 0
        CHANNELS 3 Zrotation Xrotation Yrotation
        JOINT LeftToe
        {
          OFFSET 0 0 15.6286
          CHANNELS 3 Zrotation Xrotation Yrotation
          End Site
          {
            OFFSET 0 0 0
          }
        }
      }
    }
  }
  JOINT RightUpLeg
  {
    OFFSET -9.94275 0 0
    CHANNELS 3 Zrotation Xrotation Yrotation
    JOINT RightLeg
    {
      OFFSET 0 -45.973 0
      CHANNELS 3 Zrotation Xrotation Yrotation
      JOINT RightFoot
      {
        OFFSET 0 -43.1634 0
        CHANNELS 3 Zrotation Xrotation Yrotation
        JOINT RightToe
        {
          OFFSET 0 0 15.6286
          CHANNELS 3 Zrotation Xrotation Yrotation
          End Site
          {
            OFFSET 0 0 0
          }
        }
      }
    }
  }
}
MOTION
Frames:	13
Frame Time:	0.0333333
-41.551 90.0839 13.6649 -8.66431 2.94154 133.215 -5.20106 -3.03474 -0 -1.79764e-016 -4.96962e-016 2.20891 6.95746e-016 1.98785e-016 -6.36111e-015 2.98177e-016 1.98785e-016 -0 1.98785e-016 1.98785e-016 -0 1.98785e-016 1.98785e-016 -0 24.6271 20.8283 -42.7791 -1.49631e-014 -18.8221 1.68012e-015 -2.94201e-014 1.80146e-030 90 1.98785e-016 1.98785e-016 -0 -20.1181 -14.3433 14.1099 -2.17928e-014 -42.2355 -2.1479e-014 1.59028e-014 9.73764e-031 -90 -3.25806 -15.7303 30.1125 7.95139e-016 -0.485298 -0 -1.80827e-006 36.3815 -41.4789 -3.18055e-015 0 -6.36111e-015 -6.44123 8.69998 -14.5785 7.95139e-016 23.5556 -0 -3.84383e-011 0.01021 23.5424 -3.18055e-015 7.95139e-015 3.18055e-015 
-39.5281 90.5523 10.9263 -8.46315 5.04902 131.396 -6.79575 -2.41742 6.36678e-015 -3.95596e-016 -1.98785e-016 0.574659 5.96354e-016 -5.96354e-016 -9.54166e-015 5.96354e-016 -5.96354e-016 -0 3.97569e-016 -5.96354e-016 -6.36111e-015 3.97569e-016 -5.96354e-016 -6.36111e-015 25.9909 18.2311 -44.8132 -3.11376e-015 -20.3686 9.3299e-015 9.06458e-014 -5.55045e-030 90 3.97569e-016 -5.96354e-016 -6.36111e-015 -18.5732 -11.2656 14.6148 -1.16674e-014 -37.2654 -1.59859e-014 -2.8625e-014 -1.75278e-030 -90 -4.33452 -12.3873 30.7422 7.27445e-016 1.21927 3.18127e-015 -2.72494e-006 32.2632 -40.2772 3.18055e-015 3.18055e-015 -6.36111e-015 -9.42846 8.75886 -13.3371 1.87165e-016 29.1985 -3.64352e-015 1.14325e-007 4.74695 23.765 -3.18055e-015 7.95139e-015 -3.18055e-015 
-37.7404 91.0634 8.60917 -8.07432 5.75351 128.376 -6.92395 -2.2872 -0 -1.99848e-016 -1.98785e-016 -0.305705 -7.95139e-016 1.98785e-016 3.18055e-015 2.20695e-032 3.97569e-016 -3.18055e-015 -1.98785e-016 7.95139e-016 -3.18055e-015 -1.98785e-016 7.95139e-016 -3.18055e-015 27.2849 14.8023 -45.2262 4.31491e-015 -22.1604 1.56553e-014 4.92986e-014 -3.01867e-030 90 -1.98785e-016 7.95139e-016 -3.18055e-015 -17.381 -8.47436 14.4759 9.13504e-015 -31.888 3.74587e-015 -4.77083e-015 -2.92129e-031 -90 -4.37225 -9.78434 34.0933 -1.04856e-016 1.88823 3.18228e-015 -2.21866e-007 29.6147 -40.6644 -3.18055e-015 6.36111e-015 -0 -11.5339 5.50377 -11.5658 1.10577e-014 37.7165 4.02069e-015 1.12034e-007 11.7696 22.9692 1.05934e-030 9.54166e-015 -6.36111e-015 
-35.9517 91.4685 6.6248 -7.03489 5.99441 125.036 -6.30414 -1.65559 -6.36377e-015 -1.94237e-016 1.98785e-016 -1.32598 1.98785e-016 1.98785e-016 6.36111e-015 1.98785e-016 1.98785e-016 6.36111e-015 1.10348e-032 -1.98785e-016 3.18055e-015 1.10348e-032 -1.98785e-016 3.18055e-015 29.0789 11.1874 -44.4599 1.43989e-015 -24.357 3.4913e-015 -5.725e-014 3.50555e-030 90 1.10348e-032 -1.98785e-016 3.18055e-015 -16.6422 -5.62172 13.9459 2.38542e-015 -27.0019 -0 -1.74931e-014 -1.07114e-030 -90 -3.75546 -6.91931 39.6614 -3.97569e-016 1.98835 -0 1.0825e-006 28.4132 -43.261 9.54166e-015 -1.59028e-015 -9.54166e-015 -12.2795 1.41348 -9.96027 1.3753e-014 47.0456 -4.66757e-015 4.17861e-007 18.0376 18.9678 0 3.18055e-015 -0 
-34.2697 91.7066 4.83968 -5.87916 6.46963 121.727 -5.87874 -0.569258 -9.54214e-015 -7.77673e-016 3.97569e-016 -2.63663 -5.96354e-016 -4.96962e-016 -6.36111e-015 -3.97569e-016 -5.96354e-016 -6.36111e-015 -4.41391e-032 -3.97569e-016 -6.36111e-015 -4.41391e-032 -3.97569e-016 -6.36111e-015 30.9622 7.10714 -42.1395 7.78707e-015 -25.7703 1.05954e-014 5.725e-014 -3.50555e-030 90 -4.41391e-032 -3.97569e-016 -6.36111e-015 -16.2745 -3.24936 13.0602 -3.47389e-015 -22.1843 3.43482e-015 -2.10712e-014 -1.29024e-030 -90 -3.74046 -3.81451 42.5061 3.00625e-016 1.74585 3.18203e-015 3.10993e-007 26.2091 -43.0564 -3.18055e-015 1.59028e-015 6.36111e-015 -13.2458 -2.96921 -10.349 3.28499e-014 55.8944 -1.13445e-014 -1.62371e-007 22.6448 12.3821 -3.18055e-015 5.56597e-015 -0 
-32.753 91.8479 3.40586 -4.64882 6.64594 118.765 -5.29152 0.795077 9.54258e-015 -2.37717e-015 1.98785e-016 -4.39743 1.98785e-016 2.98177e-016 -0 -5.96354e-016 1.98785e-016 6.36111e-015 -5.96354e-016 -9.93923e-017 3.18055e-015 -5.96354e-016 -9.93923e-017 3.18055e-015 33.1392 2.62387 -38.7705 1.51291e-015 -26.1922 1.06335e-014 -6.36111e-015 3.89506e-031 90 -5.96354e-016 -9.93923e-017 3.18055e-015 -16.2378 -1.24655 12.2765 -6.36111e-015 -17.6027 -0 -2.78299e-015 -1.70409e-031 -90 -3.5648 -1.22721 42.5161 1.13595e-016 2.04548 -3.18258e-015 1.56083e-007 22.9466 -39.9919 9.54166e-015 -1.59028e-015 -0 -13.4 -7.0229 -11.2808 5.41054e-014 62.4238 -3.43526e-014 -6.28464e-008 18.8588 4.98477 -0 -2.98177e-015 -0 
-31.0131 92.0324 2.14063 -2.92133 6.1327 115.532 -4.02624 2.20922 -6.36584e-015 1.30337e-016 -6.95746e-016 -5.6992 -5.96354e-016 2.98177e-016 -0 -1.98785e-016 -9.93923e-017 -3.18055e-015 0 9.93923e-017 -0 0 9.93923e-017 -0 35.7468 -1.62868 -35.2834 8.73904e-015 -26.4931 5.33061e-015 6.36111e-015 -3.89506e-031 90 0 9.93923e-017 -0 -16.5986 1.49098 10.8661 8.32902e-016 -14.6747 3.2878e-015 -1.59028e-015 -9.73764e-032 -90 -2.71744 1.75675 44.1972 7.61268e-018 1.85841 -6.36446e-015 7.26229e-007 20.7513 -38.4674 -3.18055e-015 -3.18055e-015 -0 -12.2558 -10.3866 -11.7145 7.91214e-014 65.3059 -4.56786e-014 -7.16016e-009 14.5807 1.82726 -8.82781e-032 -6.36111e-015 -7.95139e-016 
-29.3912 92.1716 0.972792 -2.53733 5.34346 112.217 -3.06943 2.40453 -9.55007e-015 -2.96726e-015 2.98177e-016 -6.7137 1.98785e-016 3.47873e-016 -0 -1.98785e-016 1.98785e-016 -3.18055e-015 -2.75869e-033 -4.96962e-017 -3.18055e-015 -2.75869e-033 -4.96962e-017 -3.18055e-015 38.2896 -5.65946 -31.341 -2.38697e-015 -26.5203 1.77729e-015 9.54166e-015 -5.84258e-031 90 -2.75869e-033 -4.96962e-017 -3.18055e-015 -17.5527 4.65472 10.188 -1.49373e-015 -13.2149 -6.53414e-015 1.43125e-014 8.76388e-031 -90 -2.49051 3.47956 45.3084 1.2772e-015 1.52169 -3.18168e-015 -1.16081e-006 18.79 -36.1928 -1.59028e-015 -3.18055e-015 -0 -11.8029 -14.8742 -13.0664 6.85106e-014 65.6144 -4.62205e-014 -1.09369e-008 14.1571 2.56709 -7.5864e-032 -5.46658e-015 -7.95139e-016 
-27.5575 92.298 0.051963 -1.98039 4.51706 109.58 -2.24767 2.74321 -0 -6.44934e-016 -2.98177e-016 -8.11969 -3.97569e-016 4.96962e-017 3.18055e-015 1.98785e-016 -4.47266e-016 3.18055e-015 5.96354e-016 -5.96354e-016 3.18055e-015 5.96354e-016 -5.96354e-016 3.18055e-015 41.509 -9.11052 -27.6444 7.98505e-015 -27.0481 3.57115e-015 1.90833e-014 -1.16852e-030 90 5.96354e-016 -5.96354e-016 3.18055e-015 -18.4921 7.87009 9.26285 -0 -12.1618 -0 -4.77083e-015 -2.92129e-031 -90 -1.90353 5.24029 46.7885 9.36316e-016 1.64753 -3.18187e-015 -5.01953e-007 17.2058 -34.9848 3.18055e-015 -4.77083e-015 -6.36111e-015 -10.5332 -17.9059 -14.3206 1.32992e-013 62.716 -9.19333e-014 -7.83089e-008 13.1598 4.91695 -7.95139e-016 -3.27995e-015 3.18055e-015 
-25.8358 92.2594 -0.782715 -2.34621 3.66025 106.923 -1.59748 2.41015 -3.18337e-015 -2.36174e-015 -2.08724e-015 -9.43009 -7.95139e-016 3.23025e-016 -0 -9.93923e-016 9.93923e-016 -1.59028e-015 -7.95139e-016 9.44227e-016 -1.59028e-015 -7.95139e-016 9.44227e-016 -1.59028e-015 44.7675 -11.7276 -23.6323 8.07123e-015 -28.2661 3.61116e-015 -3.18055e-015 1.94753e-031 90 -7.95139e-016 9.44227e-016 -1.59028e-015 -19.5814 10.8289 8.41595 -9.75138e-016 -11.5519 -4.86947e-015 4.45278e-014 2.72654e-030 -90 -1.64415 6.10045 49.5275 -1.98785e-016 1.76124 -0 1.18376e-006 15.7409 -35.0126 0 3.18055e-015 -0 -9.57711 -21.5456 -15.9014 4.07576e-013 58.0712 -3.42042e-013 -4.90142e-008 11.5859 7.2441 5.96354e-016 1.27968e-014 1.59028e-015 
-24.0171 92.1445 -1.42749 -2.62019 2.92911 104.471 -1.00184 2.353 -0 4.24328e-015 -2.18663e-015 -10.5558 3.97569e-016 1.2424e-017 7.95139e-016 1.98785e-016 2.48481e-017 -0 1.98785e-016 2.48481e-017 -0 1.98785e-016 2.48481e-017 -0 47.848 -13.9885 -19.7155 4.53735e-016 -29.7406 7.3261e-015 -6.36111e-015 3.89506e-031 90 1.98785e-016 2.48481e-017 -0 -20.4891 13.4049 5.51799 -1.1036e-015 -11.2149 -5.67432e-015 2.22639e-014 1.36327e-030 -90 -1.45941 7.20823 51.97 2.93207e-015 1.60942 -0 7.645e-008 14.5649 -34.9815 6.36111e-015 -3.18055e-015 -3.18055e-015 -8.45868 -24.1268 -18.0826 -1.41227e-013 51.319 1.59032e-014 -7.70486e-008 9.63145 6.26997 1.19271e-015 -5.41688e-015 -0 
-22.224 91.9231 -1.96859 -3.42035 2.36669 102.273 -0.5453 1.96331 -1.59121e-015 -2.73621e-015 3.52843e-015 -11.394 3.7932e-033 1.09332e-015 -1.98785e-016 -1.98785e-016 -1.28589e-015 -1.98785e-016 -0 -2.86374e-015 -0 -0 -2.86374e-015 -0 50.4726 -16.0242 -15.9988 -2.20908e-015 -31.4202 1.86353e-015 -1.59028e-015 9.73764e-032 90 -0 -2.86374e-015 -0 -21.0049 15.5588 1.20495 2.95776e-015 -10.5806 -1.21334e-015 2.54444e-014 1.55802e-030 -90 -1.57488 7.823 53.6248 2.62683e-015 1.40624 6.36303e-015 7.72524e-008 13.3843 -34.3057 1.59028e-015 4.77083e-015 -9.54166e-015 -7.76653 -26.4903 -21.4359 -3.67138e-014 43.2979 1.09253e-014 1.53711e-008 9.054 4.35223 -7.40635e-033 2.57779e-015 1.64619e-016 
-20.2919 91.6537 -2.37966 -4.44048 2.012 100.513 -0.27362 1.39568 3.1815e-015 5.31514e-015 1.04362e-015 -12.3318 -1.98785e-016 -5.82688e-015 -3.97569e-016 1.98785e-016 -3.44767e-015 3.97569e-016 -0 -3.43525e-015 -0 -0 -3.43525e-015 -0 52.2932 -17.5734 -11.7342 6.38583e-015 -33.484 -5.72015e-015 2.22639e-014 -1.36327e-030 90 -0 -3.43525e-015 -0 -21.3513 17.4928 -2.05969 2.78228e-016 -9.92379 1.61443e-015 -1.27222e-014 -7.79011e-031 -90 -1.79573 8.29026 54.5147 1.25953e-015 1.20352 -3.18126e-015 -5.25209e-007 12.4189 -33.3381 3.18055e-015 -1.59028e-015 -3.18055e-015 -7.23815 -28.0795 -26.2162 -1.36859e-014 33.7621 1.91288e-015 -2.80431e-008 9.53436 4.09105 -1.59028e-015 -1.35174e-014 3.97569e-015 
